name rise30.9205peak61.366fall85.3838.mot
datacolumns 19
datarows 20
range 13.71163700000000 13.74328400000000
endheader
time	ground_force1_vx	ground_force1_vy	ground_force1_vz	ground_force1_px	ground_force1_py	ground_force1_pz	ground_force2_vx	ground_force2_vy	ground_force2_vz	ground_force2_px	ground_force2_py	ground_force2_pz	ground_torque1_x	ground_torque1_y	ground_torque1_z	ground_torque2_x	ground_torque2_y	ground_torque2_z	
13.71163700000000	-13.09486100000000	42.77080200000000	-5.90789200000000	0.30417100000000	0.00000000000000	0.09905300000000	-56.96482900000000	777.33575299999995	-41.52538600000000	0.11574800000000	0.00000000000000	-0.05996800000000	0.00000000000000	-2.53046200000000	0.00000000000000	0.00000000000000	-14.40451100000000	0.00000000000000	
13.71328100000000	-14.37489400000000	50.38581600000000	-6.67740100000000	0.31137000000000	0.00000000000000	0.09935100000000	-57.91198500000000	774.47330199999999	-41.27268200000000	0.11467000000000	0.00000000000000	-0.05989700000000	0.00000000000000	-2.97550600000000	0.00000000000000	0.00000000000000	-14.39110100000000	0.00000000000000	
13.71495000000000	-15.41434100000000	58.16176700000000	-7.38704700000000	0.31789600000000	0.00000000000000	0.09961400000000	-58.87645400000000	771.49122799999998	-41.00782000000000	0.11359400000000	0.00000000000000	-0.05982500000000	0.00000000000000	-3.41907500000000	0.00000000000000	0.00000000000000	-14.38037600000000	0.00000000000000	
13.71662700000000	-16.17906500000000	66.00290200000001	-8.02046900000000	0.32386000000000	0.00000000000000	0.09984900000000	-59.85684700000000	768.38627599999995	-40.73044500000000	0.11252100000000	0.00000000000000	-0.05975200000000	0.00000000000000	-3.85235300000000	0.00000000000000	0.00000000000000	-14.37214900000000	0.00000000000000	
13.71828000000000	-16.64947900000000	73.83484400000000	-8.56622700000000	0.32935200000000	0.00000000000000	0.10006200000000	-60.85165200000000	765.15516200000002	-40.44020200000000	0.11145200000000	0.00000000000000	-0.05967900000000	0.00000000000000	-4.26808100000000	0.00000000000000	0.00000000000000	-14.36621700000000	0.00000000000000	
13.71995100000000	-16.82028600000000	81.60710100000000	-9.01793900000000	0.33444100000000	0.00000000000000	0.10025500000000	-61.85923400000000	761.79459299999996	-40.13673900000000	0.11038900000000	0.00000000000000	-0.05960500000000	0.00000000000000	-4.66080000000000	0.00000000000000	0.00000000000000	-14.36236000000000	0.00000000000000	
13.72162900000000	-16.69910400000000	89.29319599999999	-9.37397200000000	0.33918300000000	0.00000000000000	0.10043300000000	-62.87783700000000	758.30127400000003	-39.81971200000000	0.10933100000000	0.00000000000000	-0.05953000000000	0.00000000000000	-5.02691100000000	0.00000000000000	0.00000000000000	-14.36033900000000	0.00000000000000	
13.72328400000000	-16.30425200000000	96.88879900000001	-9.63680800000000	0.34362100000000	0.00000000000000	0.10059700000000	-63.90558900000000	754.67192299999999	-39.48878400000000	0.10828000000000	0.00000000000000	-0.05945500000000	0.00000000000000	-5.36457100000000	0.00000000000000	0.00000000000000	-14.35990300000000	0.00000000000000	
13.72495100000000	-15.66204900000000	104.40834599999999	-9.81218100000000	0.34779400000000	0.00000000000000	0.10075000000000	-64.94050500000000	750.90328199999999	-39.14362800000000	0.10723700000000	0.00000000000000	-0.05937800000000	0.00000000000000	-5.67346600000000	0.00000000000000	0.00000000000000	-14.36078400000000	0.00000000000000	
13.72663000000000	-14.80391400000000	111.88071400000000	-9.90810000000000	0.35173200000000	0.00000000000000	0.10089300000000	-65.98048900000001	746.99213199999997	-38.78393200000000	0.10620300000000	0.00000000000000	-0.05930100000000	0.00000000000000	-5.95449200000000	0.00000000000000	0.00000000000000	-14.36269900000000	0.00000000000000	
13.72828400000000	-13.76355200000000	119.34445100000001	-9.93385700000000	0.35546000000000	0.00000000000000	0.10102800000000	-67.02333900000001	742.93531099999996	-38.40940000000000	0.10517900000000	0.00000000000000	-0.05922200000000	0.00000000000000	-6.20940000000000	0.00000000000000	0.00000000000000	-14.36535400000000	0.00000000000000	
13.72994800000000	-12.57443100000000	126.84304899999999	-9.89910800000000	0.35899900000000	0.00000000000000	0.10115500000000	-68.06675300000001	738.72971900000005	-38.01975400000000	0.10416600000000	0.00000000000000	-0.05914200000000	0.00000000000000	-6.44042200000000	0.00000000000000	0.00000000000000	-14.36844300000000	0.00000000000000	
13.73162400000000	-11.26771100000000	134.42060699999999	-9.81308200000000	0.36236800000000	0.00000000000000	0.10127600000000	-69.10833500000000	734.37234200000000	-37.61473900000000	0.10316400000000	0.00000000000000	-0.05906000000000	0.00000000000000	-6.64993900000000	0.00000000000000	0.00000000000000	-14.37164600000000	0.00000000000000	
13.73328100000000	-9.87069700000000	142.11818199999999	-9.68396400000000	0.36558000000000	0.00000000000000	0.10139200000000	-70.14559900000000	729.86026300000003	-37.19412300000000	0.10217500000000	0.00000000000000	-0.05897700000000	0.00000000000000	-6.84018000000000	0.00000000000000	0.00000000000000	-14.37463500000000	0.00000000000000	
13.73494600000000	-8.40585700000000	149.97096800000000	-9.51846200000000	0.36865000000000	0.00000000000000	0.10150300000000	-71.17597600000001	725.19067700000005	-36.75770200000000	0.10120000000000	0.00000000000000	-0.05889300000000	0.00000000000000	-7.01300000000000	0.00000000000000	0.00000000000000	-14.37707300000000	0.00000000000000	
13.73662300000000	-6.89036900000000	158.00638499999999	-9.32157400000000	0.37158800000000	0.00000000000000	0.10160900000000	-72.19682100000000	720.36091199999998	-36.30530000000000	0.10023900000000	0.00000000000000	-0.05880700000000	0.00000000000000	-7.16971600000000	0.00000000000000	0.00000000000000	-14.37861400000000	0.00000000000000	
13.73827800000000	-5.33614400000000	166.24305600000000	-9.09651500000000	0.37440300000000	0.00000000000000	0.10171200000000	-73.20542000000000	715.36844099999996	-35.83677500000000	0.09929400000000	0.00000000000000	-0.05871900000000	0.00000000000000	-7.31102900000000	0.00000000000000	0.00000000000000	-14.37890500000000	0.00000000000000	
13.73995300000000	-3.75023600000000	174.69058500000000	-8.84480000000000	0.37710400000000	0.00000000000000	0.10181200000000	-74.19899800000000	710.21089800000004	-35.35201700000000	0.09836600000000	0.00000000000000	-0.05862900000000	0.00000000000000	-7.43699700000000	0.00000000000000	0.00000000000000	-14.37758800000000	0.00000000000000	
13.74162400000000	-2.13553300000000	183.35001500000001	-8.56644300000000	0.37969800000000	0.00000000000000	0.10190800000000	-75.17472800000000	704.88610400000005	-34.85095200000000	0.09745500000000	0.00000000000000	-0.05853700000000	0.00000000000000	-7.54707200000000	0.00000000000000	0.00000000000000	-14.37429900000000	0.00000000000000	
13.74328400000000	-0.49163300000000	192.21479600000001	-8.26022800000000	0.38219000000000	0.00000000000000	0.10200200000000	-76.12973599999999	699.39207499999998	-34.33354700000000	0.09656300000000	0.00000000000000	-0.05844300000000	0.00000000000000	-7.64018200000000	0.00000000000000	0.00000000000000	-14.36867200000000	0.00000000000000	
